<?xml version="1.0" encoding="UTF-8"?>
<!DOCTYPE svg PUBLIC "-//W3C//DTD SVG 1.1//EN" "http://www.w3.org/Graphics/SVG/1.1/DTD/svg11.dtd">
<svg xmlns="http://www.w3.org/2000/svg" version="1.1" width="768px" height="768px" style="shape-rendering:geometricPrecision; text-rendering:geometricPrecision; image-rendering:optimizeQuality; fill-rule:evenodd; clip-rule:evenodd" xmlns:xlink="http://www.w3.org/1999/xlink">
<g><path style="opacity:0.992" fill="#ee2200" d="M 358.5,26.5 C 495.637,21.5986 603.47,74.5986 682,185.5C 734.348,266.909 752.015,355.575 735,451.5C 707.355,574.774 636.189,662.274 521.5,714C 454.888,740.241 386.221,747.241 315.5,735C 192.226,707.355 104.726,636.189 53,521.5C 26.7589,454.888 19.7589,386.221 32,315.5C 59.6447,192.226 130.811,104.726 245.5,53C 281.901,38.3148 319.568,29.4814 358.5,26.5 Z"/></g>
<g><path style="opacity:1" fill="#fab1a5" d="M 525.5,178.5 C 521.131,178.467 516.798,178.8 512.5,179.5C 514.848,178.048 517.514,177.382 520.5,177.5C 522.369,177.507 524.036,177.84 525.5,178.5 Z"/></g>
<g><path style="opacity:1" fill="#fffefe" d="M 512.5,179.5 C 516.798,178.8 521.131,178.467 525.5,178.5C 527.924,179.03 530.257,179.864 532.5,181C 550.333,198.833 568.167,216.667 586,234.5C 590.913,243.039 590.58,251.372 585,259.5C 543.653,300.68 502.486,342.014 461.5,383.5C 502.486,424.986 543.653,466.32 585,507.5C 590.574,515.59 590.907,523.923 586,532.5C 568.167,550.333 550.333,568.167 532.5,586C 523.923,590.907 515.59,590.574 507.5,585C 466.32,543.653 424.986,502.486 383.5,461.5C 342.014,502.486 300.68,543.653 259.5,585C 251.372,590.58 243.039,590.913 234.5,586C 216.667,568.167 198.833,550.333 181,532.5C 176.093,523.923 176.426,515.59 182,507.5C 223.347,466.32 264.514,424.986 305.5,383.5C 264.514,342.014 223.347,300.68 182,259.5C 175.105,248.121 176.438,237.788 186,228.5C 202.471,213.029 218.638,197.196 234.5,181C 243.039,176.087 251.372,176.42 259.5,182C 300.68,223.347 342.014,264.514 383.5,305.5C 424.986,264.514 466.32,223.347 507.5,182C 509.078,180.906 510.745,180.072 512.5,179.5 Z"/></g>
</svg>
