<svg version="1.1" id="Layer_1" xmlns="http://www.w3.org/2000/svg" xmlns:xlink="http://www.w3.org/1999/xlink" x="0px" y="0px"
	 width="100%" viewBox="0 0 768 768" enable-background="new 0 0 768 768" xml:space="preserve">
<path fill="#000000" opacity="1.000000" stroke="none" 
	d="
M411.000000,769.000000 
	C274.000000,769.000000 137.500000,769.000000 1.000000,769.000000 
	C1.000000,513.000000 1.000000,257.000000 1.000000,1.000000 
	C257.000000,1.000000 513.000000,1.000000 769.000000,1.000000 
	C769.000000,257.000000 769.000000,513.000000 769.000000,769.000000 
	C649.833313,769.000000 530.666687,769.000000 411.000000,769.000000 
M535.041321,709.492371 
	C538.394165,708.297485 541.963196,707.502563 545.057983,705.830200 
	C553.265564,701.395142 561.457214,696.875732 569.306335,691.845520 
	C580.086365,684.937073 591.143250,678.256287 601.004333,670.165222 
	C616.618530,657.353699 632.113098,644.208557 646.196045,629.777710 
	C657.580750,618.111816 667.323303,604.709473 676.841614,591.396301 
	C685.331726,579.521179 692.530457,566.721619 700.267883,554.310608 
	C702.217834,551.182922 704.427795,548.143127 705.863281,544.783020 
	C710.123535,534.810791 714.263916,524.776123 718.055908,514.618286 
	C721.348694,505.797791 724.246033,496.821075 727.063232,487.833466 
	C732.193604,471.466248 737.355042,455.148712 738.275208,437.759888 
	C738.837097,427.143402 741.544067,416.617065 741.806702,406.013550 
	C742.209229,389.763428 741.742065,373.459808 740.870789,357.220367 
	C740.203491,344.783417 739.051514,332.283630 736.861450,320.035919 
	C732.469910,295.476807 725.108398,271.679535 716.051697,248.439270 
	C712.930542,240.430222 709.625244,232.448593 705.730652,224.797195 
	C701.503113,216.491623 696.774170,208.404404 691.751892,200.549255 
	C684.943726,189.900543 678.080750,179.236435 670.466736,169.164474 
	C657.273987,151.712738 643.066345,135.037888 626.267944,120.911102 
	C612.774963,109.564102 598.945007,98.574974 584.758789,88.112869 
	C577.314636,82.622910 568.842712,78.501442 560.726135,73.956192 
	C553.970459,70.173065 547.165161,66.445274 540.183594,63.107655 
	C531.987061,59.189243 523.701416,55.392918 515.224670,52.142925 
	C506.127472,48.655079 496.819550,45.681358 487.503357,42.808289 
	C471.276215,37.803921 455.135132,32.617893 437.892731,31.775736 
	C425.617462,31.176186 413.413116,28.334625 401.161469,28.223513 
	C381.965973,28.049425 362.748718,29.160730 343.558472,30.093882 
	C336.214478,30.450991 328.849030,31.444263 321.620087,32.815617 
	C312.661896,34.515003 303.712128,36.494141 294.978943,39.092648 
	C279.418396,43.722618 263.822571,48.370998 248.627579,54.045578 
	C238.041245,57.999054 227.997757,63.480103 217.902908,68.651848 
	C210.121414,72.638420 202.610672,77.159523 195.043365,81.552895 
	C193.555252,82.416862 192.519241,84.099388 191.002930,84.868820 
	C177.612442,91.663681 166.187943,101.311928 154.920792,110.904251 
	C142.932922,121.110161 131.459854,132.109070 120.982643,143.850906 
	C109.261101,156.987244 98.518547,171.059937 88.110535,185.281769 
	C81.968697,193.674179 77.166809,203.069519 72.021202,212.160355 
	C68.930748,217.620316 66.186325,223.292130 63.557575,228.993759 
	C59.479088,237.839783 55.309097,246.666855 51.779984,255.736237 
	C48.427261,264.352295 45.706543,273.225311 42.958347,282.063202 
	C37.865772,298.440338 32.650909,314.741608 31.770571,332.143433 
	C31.157959,344.253052 28.325186,356.291473 28.223034,368.376404 
	C28.059364,387.739136 29.219667,407.119202 30.068005,426.481110 
	C30.369656,433.365784 30.697359,440.377075 32.216228,447.057007 
	C36.979115,468.004059 41.474178,489.058594 49.557270,509.088074 
	C54.472000,521.266479 58.884319,533.685791 64.515457,545.524597 
	C68.856773,554.651733 74.705238,563.067078 79.969086,571.747009 
	C81.457436,574.201233 83.575623,576.309387 84.842575,578.856079 
	C91.537697,592.313416 101.222298,603.714233 110.811829,614.968323 
	C121.454086,627.458008 133.252289,639.017517 145.101074,650.405823 
	C153.646072,658.618652 162.591904,666.609924 172.273727,673.394592 
	C184.066605,681.658691 196.746582,688.676697 209.185104,695.991821 
	C215.804337,699.884583 222.605484,703.515564 229.538345,706.815430 
	C237.889114,710.790161 246.348068,714.598083 254.979355,717.906494 
	C263.921967,721.334167 273.080414,724.226196 282.227448,727.087280 
	C298.596344,732.207153 314.916107,737.364319 332.300140,738.294495 
	C343.749115,738.907166 355.127686,741.711914 366.548401,741.780945 
	C386.413361,741.901001 406.291870,740.787720 426.153442,739.931335 
	C433.201233,739.627441 440.367462,739.244873 447.218353,737.722534 
	C468.670258,732.955811 490.153320,728.164246 510.649872,719.960083 
	C518.640137,716.761780 526.539185,713.335693 535.041321,709.492371 
z"/>
<path fill="#EE2200" opacity="1.000000" stroke="none" 
	d="
M534.760559,709.752930 
	C526.539185,713.335693 518.640137,716.761780 510.649872,719.960083 
	C490.153320,728.164246 468.670258,732.955811 447.218353,737.722534 
	C440.367462,739.244873 433.201233,739.627441 426.153442,739.931335 
	C406.291870,740.787720 386.413361,741.901001 366.548401,741.780945 
	C355.127686,741.711914 343.749115,738.907166 332.300140,738.294495 
	C314.916107,737.364319 298.596344,732.207153 282.227448,727.087280 
	C273.080414,724.226196 263.921967,721.334167 254.979355,717.906494 
	C246.348068,714.598083 237.889114,710.790161 229.538345,706.815430 
	C222.605484,703.515564 215.804337,699.884583 209.185104,695.991821 
	C196.746582,688.676697 184.066605,681.658691 172.273727,673.394592 
	C162.591904,666.609924 153.646072,658.618652 145.101074,650.405823 
	C133.252289,639.017517 121.454086,627.458008 110.811829,614.968323 
	C101.222298,603.714233 91.537697,592.313416 84.842575,578.856079 
	C83.575623,576.309387 81.457436,574.201233 79.969086,571.747009 
	C74.705238,563.067078 68.856773,554.651733 64.515457,545.524597 
	C58.884319,533.685791 54.472000,521.266479 49.557270,509.088074 
	C41.474178,489.058594 36.979115,468.004059 32.216228,447.057007 
	C30.697359,440.377075 30.369656,433.365784 30.068005,426.481110 
	C29.219667,407.119202 28.059364,387.739136 28.223034,368.376404 
	C28.325186,356.291473 31.157959,344.253052 31.770571,332.143433 
	C32.650909,314.741608 37.865772,298.440338 42.958347,282.063202 
	C45.706543,273.225311 48.427261,264.352295 51.779984,255.736237 
	C55.309097,246.666855 59.479088,237.839783 63.557575,228.993759 
	C66.186325,223.292130 68.930748,217.620316 72.021202,212.160355 
	C77.166809,203.069519 81.968697,193.674179 88.110535,185.281769 
	C98.518547,171.059937 109.261101,156.987244 120.982643,143.850906 
	C131.459854,132.109070 142.932922,121.110161 154.920792,110.904251 
	C166.187943,101.311928 177.612442,91.663681 191.002930,84.868820 
	C192.519241,84.099388 193.555252,82.416862 195.043365,81.552895 
	C202.610672,77.159523 210.121414,72.638420 217.902908,68.651848 
	C227.997757,63.480103 238.041245,57.999054 248.627579,54.045578 
	C263.822571,48.370998 279.418396,43.722618 294.978943,39.092648 
	C303.712128,36.494141 312.661896,34.515003 321.620087,32.815617 
	C328.849030,31.444263 336.214478,30.450991 343.558472,30.093882 
	C362.748718,29.160730 381.965973,28.049425 401.161469,28.223513 
	C413.413116,28.334625 425.617462,31.176186 437.892731,31.775736 
	C455.135132,32.617893 471.276215,37.803921 487.503357,42.808289 
	C496.819550,45.681358 506.127472,48.655079 515.224670,52.142925 
	C523.701416,55.392918 531.987061,59.189243 540.183594,63.107655 
	C547.165161,66.445274 553.970459,70.173065 560.726135,73.956192 
	C568.842712,78.501442 577.314636,82.622910 584.758789,88.112869 
	C598.945007,98.574974 612.774963,109.564102 626.267944,120.911102 
	C643.066345,135.037888 657.273987,151.712738 670.466736,169.164474 
	C678.080750,179.236435 684.943726,189.900543 691.751892,200.549255 
	C696.774170,208.404404 701.503113,216.491623 705.730652,224.797195 
	C709.625244,232.448593 712.930542,240.430222 716.051697,248.439270 
	C725.108398,271.679535 732.469910,295.476807 736.861450,320.035919 
	C739.051514,332.283630 740.203491,344.783417 740.870789,357.220367 
	C741.742065,373.459808 742.209229,389.763428 741.806702,406.013550 
	C741.544067,416.617065 738.837097,427.143402 738.275208,437.759888 
	C737.355042,455.148712 732.193604,471.466248 727.063232,487.833466 
	C724.246033,496.821075 721.348694,505.797791 718.055908,514.618286 
	C714.263916,524.776123 710.123535,534.810791 705.863281,544.783020 
	C704.427795,548.143127 702.217834,551.182922 700.267883,554.310608 
	C692.530457,566.721619 685.331726,579.521179 676.841614,591.396301 
	C667.323303,604.709473 657.580750,618.111816 646.196045,629.777710 
	C632.113098,644.208557 616.618530,657.353699 601.004333,670.165222 
	C591.143250,678.256287 580.086365,684.937073 569.306335,691.845520 
	C561.457214,696.875732 553.265564,701.395142 545.057983,705.830200 
	C541.963196,707.502563 538.394165,708.297485 534.760559,709.752930 
M522.558838,444.941528 
	C502.658630,425.077881 482.758392,405.214233 462.667084,385.159882 
	C464.260925,383.482391 465.471588,382.150269 466.742798,380.878693 
	C505.617615,341.993195 544.506470,303.121735 583.372620,264.227509 
	C593.071533,254.521576 593.492859,241.880569 584.056274,232.263382 
	C568.768677,216.683136 553.327820,201.249512 537.752197,185.957047 
	C528.269775,176.647018 515.526428,176.894943 506.148132,186.261887 
	C476.204132,216.169739 446.283569,246.101120 416.399811,276.069153 
	C406.070892,286.427216 395.876495,296.919403 385.437744,307.536377 
	C383.655182,305.877045 382.428162,304.804016 381.277954,303.654144 
	C342.627350,265.015717 303.980927,226.373138 265.341705,187.723358 
	C253.941422,176.319977 241.885818,176.262436 230.504883,187.624847 
	C216.236252,201.870285 201.982208,216.130325 187.732956,230.395142 
	C176.333649,241.806839 176.308868,253.932770 187.624908,265.240509 
	C224.515640,302.104248 261.405792,338.968597 298.285767,375.843079 
	C301.293060,378.849976 304.221588,381.935638 307.530823,385.338562 
	C305.721863,386.955383 304.293304,388.112854 302.999878,389.405548 
	C264.226501,428.156830 225.459152,466.914154 186.709396,505.689056 
	C176.709885,515.695068 176.586823,528.318237 186.555161,538.390991 
	C201.440750,553.432617 216.416443,568.385925 231.443039,583.286804 
	C241.712357,593.470154 254.252899,593.351074 264.494659,583.109314 
	C297.955200,549.648804 331.429413,516.201904 364.823334,482.675049 
	C371.475922,475.995972 377.797363,468.987091 384.700165,461.676239 
	C386.943268,464.225708 388.081482,465.672699 389.373718,466.965790 
	C427.887543,505.505310 466.416779,544.029480 504.943237,582.556396 
	C515.905457,593.518799 528.179993,593.637024 539.068726,582.792786 
	C553.709045,568.212280 568.323792,553.605713 582.898804,538.959839 
	C593.542419,528.264404 593.469666,515.862244 582.788757,505.179230 
	C562.879395,485.265961 542.961426,465.361328 522.558838,444.941528 
z"/>
<path fill="#FFFEFE" opacity="1.000000" stroke="none" 
	d="
M522.802979,445.197296 
	C542.961426,465.361328 562.879395,485.265961 582.788757,505.179230 
	C593.469666,515.862244 593.542419,528.264404 582.898804,538.959839 
	C568.323792,553.605713 553.709045,568.212280 539.068726,582.792786 
	C528.179993,593.637024 515.905457,593.518799 504.943237,582.556396 
	C466.416779,544.029480 427.887543,505.505310 389.373718,466.965790 
	C388.081482,465.672699 386.943268,464.225708 384.700165,461.676239 
	C377.797363,468.987091 371.475922,475.995972 364.823334,482.675049 
	C331.429413,516.201904 297.955200,549.648804 264.494659,583.109314 
	C254.252899,593.351074 241.712357,593.470154 231.443039,583.286804 
	C216.416443,568.385925 201.440750,553.432617 186.555161,538.390991 
	C176.586823,528.318237 176.709885,515.695068 186.709396,505.689056 
	C225.459152,466.914154 264.226501,428.156830 302.999878,389.405548 
	C304.293304,388.112854 305.721863,386.955383 307.530823,385.338562 
	C304.221588,381.935638 301.293060,378.849976 298.285767,375.843079 
	C261.405792,338.968597 224.515640,302.104248 187.624908,265.240509 
	C176.308868,253.932770 176.333649,241.806839 187.732956,230.395142 
	C201.982208,216.130325 216.236252,201.870285 230.504883,187.624847 
	C241.885818,176.262436 253.941422,176.319977 265.341705,187.723358 
	C303.980927,226.373138 342.627350,265.015717 381.277954,303.654144 
	C382.428162,304.804016 383.655182,305.877045 385.437744,307.536377 
	C395.876495,296.919403 406.070892,286.427216 416.399811,276.069153 
	C446.283569,246.101120 476.204132,216.169739 506.148132,186.261887 
	C515.526428,176.894943 528.269775,176.647018 537.752197,185.957047 
	C553.327820,201.249512 568.768677,216.683136 584.056274,232.263382 
	C593.492859,241.880569 593.071533,254.521576 583.372620,264.227509 
	C544.506470,303.121735 505.617615,341.993195 466.742798,380.878693 
	C465.471588,382.150269 464.260925,383.482391 462.667084,385.159882 
	C482.758392,405.214233 502.658630,425.077881 522.802979,445.197296 
z"/>
</svg>