<?xml version="1.0"?>
<svg width="300" height="300" xmlns="http://www.w3.org/2000/svg" xmlns:svg="http://www.w3.org/2000/svg" preserveAspectRatio="xMidYMid meet" version="1.0">
 <g class="layer">
  <title>Layer 1</title>
  <g fill="#000000" id="svg_1" transform="matrix(0.1 0 0 -0.1 0 0)">
   <path d="m1360,-237c-637,-66 -1130,-613 -1130,-1253c0,-502 309,-966 773,-1160c284,-119 611,-130 897,-30c502,174 850,661 850,1189c0,418 -211,813 -560,1048c-235,158 -547,236 -830,206zm945,-558c44,-22 93,-71 111,-113c19,-45 18,-115 -2,-155c-22,-44 -1070,-1094 -1116,-1118c-46,-24 -118,-25 -166,-2c-47,22 -536,512 -562,563c-47,92 -4,216 92,266c35,18 141,18 176,0c15,-8 103,-91 197,-185c93,-94 172,-171 176,-171c3,0 208,202 456,450c268,268 464,456 484,465c45,19 113,19 154,0z" fill="#00bf00" id="svg_2"/>
  </g>
 </g>
</svg>