<?xml version="1.0" encoding="UTF-8"?>
<!DOCTYPE svg PUBLIC "-//W3C//DTD SVG 1.1//EN" "http://www.w3.org/Graphics/SVG/1.1/DTD/svg11.dtd">
<svg xmlns="http://www.w3.org/2000/svg" version="1.1" width="300px" height="300px" style="shape-rendering:geometricPrecision; text-rendering:geometricPrecision; image-rendering:optimizeQuality; fill-rule:evenodd; clip-rule:evenodd" xmlns:xlink="http://www.w3.org/1999/xlink">
<g><path style="opacity:0.008" fill="#307e29" d="M 134.5,22.5 C 134.897,21.475 135.563,21.3083 136.5,22C 135.906,22.4643 135.239,22.631 134.5,22.5 Z"/></g>
<g><path style="opacity:0.008" fill="#2c8a24" d="M 161.5,22.5 C 162.251,21.4265 163.251,21.2599 164.5,22C 163.552,22.4828 162.552,22.6495 161.5,22.5 Z"/></g>
<g><path style="opacity:0.997" fill="#019801" d="M 195.5,30.5 C 196.189,31.7736 197.023,31.7736 198,30.5C 199.333,31.1667 200.333,32.1667 201,33.5C 201.333,33.1667 201.667,32.8333 202,32.5C 203.4,33.748 204.9,34.748 206.5,35.5C 207.189,36.7736 208.023,36.7736 209,35.5C 210.012,37.8642 211.345,39.1976 213,39.5C 213.333,39.1667 213.667,38.8333 214,38.5C 216.234,39.8909 218.567,41.8909 221,44.5C 221.333,44.1667 221.667,43.8333 222,43.5C 223,44.8333 224,46.1667 225,47.5C 226.558,46.6548 227.558,47.3215 228,49.5C 228.333,49.1667 228.667,48.8333 229,48.5C 230.667,50.5 232.333,52.5 234,54.5C 234.333,54.1667 234.667,53.8333 235,53.5C 235.5,54.6667 236.333,55.5 237.5,56C 237.167,56.3333 236.833,56.6667 236.5,57C 239.586,59.9173 242.586,62.2506 245.5,64C 245.167,64.3333 244.833,64.6667 244.5,65C 248.23,68.481 251.897,72.6477 255.5,77.5C 254.167,77.8333 254.167,78.1667 255.5,78.5C 259.871,83.6471 263.538,89.4805 266.5,96C 265.5,98.0907 266.167,99.7574 268.5,101C 267.167,102.84 267.334,103.34 269,102.5C 269.303,104.888 270.137,107.055 271.5,109C 270.428,111.676 271.095,114.009 273.5,116C 274.253,117.742 274.253,119.742 273.5,122C 274.697,124.589 275.697,127.256 276.5,130C 276.964,143.101 276.964,156.101 276.5,169C 275.697,171.744 274.697,174.411 273.5,177C 274.253,179.258 274.253,181.258 273.5,183C 271.095,184.991 270.428,187.324 271.5,190C 270.242,191.741 269.242,193.574 268.5,195.5C 267.226,196.189 267.226,197.023 268.5,198C 266.167,199.243 265.5,200.909 266.5,203C 265.5,203.833 264.5,204.667 263.5,205.5C 263.136,207.733 262.136,209.566 260.5,211C 260.833,211.333 261.167,211.667 261.5,212C 259.947,213.097 258.614,214.43 257.5,216C 257.833,216.333 258.167,216.667 258.5,217C 252.846,224.023 247.68,230.856 243,237.5C 242.667,237.167 242.333,236.833 242,236.5C 240.833,239 239,240.833 236.5,242C 236.833,242.333 237.167,242.667 237.5,243C 230.86,247.813 224.193,252.813 217.5,258C 213.665,260.283 209.665,262.116 205.5,263.5C 204.655,265.762 203.322,266.429 201.5,265.5C 200.186,266.313 199.019,267.313 198,268.5C 197.023,267.226 196.189,267.226 195.5,268.5C 189.735,269.53 184.402,271.53 179.5,274.5C 176.151,273.46 172.651,274.127 169,276.5C 163.748,275.218 158.582,275.551 153.5,277.5C 147.75,278.086 141.75,277.419 135.5,275.5C 130.753,276.871 126.253,276.205 122,273.5C 119.742,274.253 117.742,274.253 116,273.5C 114.253,272.67 112.587,271.67 111,270.5C 110.228,270.645 109.561,270.978 109,271.5C 107.22,270.361 105.386,269.361 103.5,268.5C 102.811,267.226 101.977,267.226 101,268.5C 99.7574,266.167 98.0907,265.5 96,266.5C 94.1733,265.341 92.5067,264.008 91,262.5C 89.4419,263.345 88.4419,262.679 88,260.5C 85.5118,261.412 83.8452,260.412 83,257.5C 82.6667,257.833 82.3333,258.167 82,258.5C 80.3451,258.198 79.0118,256.864 78,254.5C 77.6667,254.833 77.3333,255.167 77,255.5C 74.2081,253.198 71.3747,251.031 68.5,249C 62.5611,243.061 55.8945,236.394 48.5,229C 48.8333,228.667 49.1667,228.333 49.5,228C 47.3215,227.558 46.6548,226.558 47.5,225C 44.4862,223.328 42.4862,221.328 41.5,219C 41.8333,218.667 42.1667,218.333 42.5,218C 42.1976,216.345 40.8642,215.012 38.5,214C 38.5,213 38.5,212 38.5,211C 36.3215,210.558 35.6548,209.558 36.5,208C 34.4311,207.676 34.0977,206.842 35.5,205.5C 33.9574,202.914 32.2907,200.414 30.5,198C 31.7736,197.023 31.7736,196.189 30.5,195.5C 30.1784,192.203 28.8451,189.037 26.5,186C 26.8333,185.667 27.1667,185.333 27.5,185C 24.8681,182.934 24.2014,180.434 25.5,177.5C 24.0472,170.082 22.7139,162.582 21.5,155C 21.8924,151.059 21.8924,147.225 21.5,143.5C 22.7372,136.089 24.0706,128.756 25.5,121.5C 25.3201,120.446 24.9867,119.446 24.5,118.5C 26.3595,116.154 27.3595,113.821 27.5,111.5C 28.2493,108.799 29.2493,106.132 30.5,103.5C 31.7736,102.811 31.7736,101.977 30.5,101C 31.3128,99.6861 32.3128,98.5195 33.5,97.5C 32.5244,95.8767 33.0244,94.5433 35,93.5C 34.9461,90.8094 36.1128,88.9761 38.5,88C 38.5,87 38.5,86 38.5,85C 39.3279,84.0853 40.3279,83.4186 41.5,83C 41.5,82 41.5,81 41.5,80C 42.4862,77.6716 44.4862,75.6716 47.5,74C 46.6548,72.4419 47.3215,71.4419 49.5,71C 49.1667,70.6667 48.8333,70.3333 48.5,70C 49.5634,68.8118 50.8967,68.3118 52.5,68.5C 53.2177,64.4421 55.551,61.6087 59.5,60C 61.4445,56.0748 64.4445,53.4082 68.5,52C 67.7417,50.6361 68.2417,49.4695 70,48.5C 70.3333,48.8333 70.6667,49.1667 71,49.5C 73.3284,48.5138 75.3284,46.5138 77,43.5C 78.5581,44.3452 79.5581,43.6785 80,41.5C 81,41.5 82,41.5 83,41.5C 83.4186,40.3279 84.0853,39.3279 85,38.5C 86,38.5 87,38.5 88,38.5C 90.7972,36.758 93.4639,34.758 96,32.5C 96.414,32.9574 96.914,33.2907 97.5,33.5C 98.5195,32.3128 99.6861,31.3128 101,30.5C 101.977,31.7736 102.811,31.7736 103.5,30.5C 109.08,28.9957 114.08,26.9957 118.5,24.5C 120.667,25.9542 122.667,25.7875 124.5,24C 132.99,23.6348 141.323,22.8015 149.5,21.5C 156.939,22.5272 164.439,23.5272 172,24.5C 172.414,24.0426 172.914,23.7093 173.5,23.5C 175.452,25.533 177.618,25.8663 180,24.5C 184.612,26.855 189.779,28.855 195.5,30.5 Z"/></g>
<g><path style="opacity:0.008" fill="#005400" d="M 110.5,26.5 C 111.833,27.1667 111.833,27.1667 110.5,26.5 Z"/></g>
<g><path style="opacity:0.008" fill="#005400" d="M 103.5,30.5 C 102.833,29.1667 102.833,29.1667 103.5,30.5 Z"/></g>
<g><path style="opacity:0.008" fill="#005400" d="M 195.5,29.5 C 196.833,30.1667 196.833,30.1667 195.5,29.5 Z"/></g>
<g><path style="opacity:0.008" fill="#005400" d="M 206.5,34.5 C 207.833,35.1667 207.833,35.1667 206.5,34.5 Z"/></g>
<g><path style="opacity:0.008" fill="#005400" d="M 255.5,77.5 C 256.833,78.1667 256.833,78.1667 255.5,77.5 Z"/></g>
<g><path style="opacity:0.951" fill="#fefefe" d="M 217.5,79.5 C 237.312,78.7948 245.146,88.1282 241,107.5C 204.833,145 168,181.833 130.5,218C 129.5,218.5 128.5,219 127.5,219.5C 123.636,219.466 119.803,219.466 116,219.5C 113.417,218.126 110.917,216.626 108.5,215C 92.3623,197.862 75.8623,181.028 59,164.5C 52.7648,147.967 58.2648,137.967 75.5,134.5C 78.998,134.708 82.3313,135.541 85.5,137C 97.7459,149.259 110.079,160.926 122.5,172C 152.167,142.333 181.833,112.667 211.5,83C 213.727,82.059 215.727,80.8923 217.5,79.5 Z"/></g>
<g><path style="opacity:0.008" fill="#005400" d="M 30.5,103.5 C 29.8333,102.167 29.8333,102.167 30.5,103.5 Z"/></g>
<g><path style="opacity:0.008" fill="#7cda77" d="M 27.5,111.5 C 26.8333,110.167 26.8333,110.167 27.5,111.5 Z"/></g>
<g><path style="opacity:0.008" fill="#2c8a24" d="M 21.5,134.5 C 22.5735,135.251 22.7401,136.251 22,137.5C 21.5172,136.552 21.3505,135.552 21.5,134.5 Z"/></g>
<g><path style="opacity:0.008" fill="#2c8a24" d="M 21.5,161.5 C 22.5735,162.251 22.7401,163.251 22,164.5C 21.5172,163.552 21.3505,162.552 21.5,161.5 Z"/></g>
<g><path style="opacity:0.008" fill="#005400" d="M 26.5,187.5 C 27.8333,188.167 27.8333,188.167 26.5,187.5 Z"/></g>
<g><path style="opacity:0.008" fill="#005400" d="M 30.5,195.5 C 29.8333,196.167 29.8333,196.167 30.5,195.5 Z"/></g>
<g><path style="opacity:0.008" fill="#005400" d="M 268.5,195.5 C 269.833,196.167 269.833,196.167 268.5,195.5 Z"/></g>
<g><path style="opacity:0.008" fill="#005400" d="M 103.5,268.5 C 102.833,269.167 102.833,269.167 103.5,268.5 Z"/></g>
<g><path style="opacity:0.008" fill="#005400" d="M 195.5,268.5 C 196.833,269.167 196.833,269.167 195.5,268.5 Z"/></g>
</svg>
