<svg version="1.1" id="Layer_1" xmlns="http://www.w3.org/2000/svg" xmlns:xlink="http://www.w3.org/1999/xlink" x="0px" y="0px"
	 width="100%" viewBox="0 0 300 300" enable-background="new 0 0 300 300" xml:space="preserve">
<path fill="#FFFFFF" opacity="1.000000" stroke="none" 
	d="
M301.000000,108.000000 
	C301.000000,172.666656 301.000000,236.833313 301.000000,301.000000 
	C201.000031,301.000000 101.000061,301.000000 1.000066,301.000000 
	C1.000044,201.000046 1.000044,101.000092 1.000022,1.000106 
	C100.999939,1.000071 200.999878,1.000071 300.999908,1.000035 
	C301.000000,36.500000 301.000000,72.000000 301.000000,108.000000 
M155.527374,24.000502 
	C151.856644,23.901119 148.185928,23.801737 143.942429,23.298796 
	C142.449371,23.203108 140.956345,23.024618 139.463242,23.023842 
	C102.018448,23.004404 64.573662,23.001041 27.128870,23.010912 
	C25.854546,23.011248 24.580267,23.177752 22.999557,23.288216 
	C22.999557,24.894253 22.999556,26.196756 22.999556,27.499260 
	C22.999554,62.456070 22.989590,97.412888 23.013779,132.369675 
	C23.016418,136.183182 23.215830,139.996552 23.013832,144.737305 
	C23.213219,149.021347 23.412605,153.305374 23.284613,158.343689 
	C23.190598,159.503342 23.014887,160.662964 23.014414,161.822647 
	C22.999096,199.252289 23.000687,236.681931 22.999752,274.111572 
	C22.999712,275.688843 22.999746,277.266113 22.999746,279.000153 
	C35.569084,279.000153 47.376610,279.016785 59.184078,278.996857 
	C88.132851,278.947937 117.081581,278.882172 146.931290,278.968628 
	C149.943954,278.920898 152.956619,278.873199 156.899490,278.973938 
	C197.490356,278.973938 238.081207,278.973938 278.999390,278.973938 
	C278.999390,277.434753 278.999359,276.464233 278.999359,275.493713 
	C278.999481,236.336945 279.016479,197.180161 278.973022,158.023438 
	C278.968811,154.224319 278.590820,150.425644 278.781372,145.883636 
	C278.789246,145.603226 278.797150,145.322800 278.970734,144.112717 
	C278.970734,103.900505 278.970734,63.688301 278.970734,23.000145 
	C277.440155,23.000145 276.323761,23.000145 275.207367,23.000143 
	C239.940125,23.000097 204.672867,22.975897 169.405701,23.031221 
	C165.099884,23.037975 160.794724,23.471628 155.527374,24.000502 
z"/>
<path fill="#019901" opacity="1.000000" stroke="none" 
	d="
M23.611990,157.589417 
	C23.412605,153.305374 23.213219,149.021347 23.428642,144.038834 
	C24.246061,139.242691 24.548697,135.132019 25.078833,131.050919 
	C25.631166,126.798882 25.791950,122.357765 27.206760,118.384941 
	C30.098618,110.264526 33.901005,102.473427 36.990368,94.417068 
	C41.278282,83.235153 49.202824,74.384277 56.351673,65.246368 
	C61.432713,58.751610 68.946175,54.122417 75.517120,48.838570 
	C88.519287,38.383240 103.673553,32.172775 119.448967,27.468163 
	C124.506042,25.960020 129.972229,25.824560 135.250763,25.057890 
	C138.339386,24.609293 141.427078,24.154413 144.515198,23.702356 
	C148.185928,23.801737 151.856644,23.901119 156.367126,23.989708 
	C165.594009,24.912016 174.156815,25.091656 182.317886,26.994396 
	C190.162521,28.823357 198.099442,31.532511 205.090836,35.464157 
	C217.452133,42.415588 229.688339,49.602699 239.880798,59.983829 
	C250.976715,71.285156 260.197968,83.663620 266.864899,97.966225 
	C270.964569,106.761192 273.530304,116.060783 275.692963,125.500519 
	C276.647705,129.667892 277.693085,133.672913 277.136993,138.086227 
	C276.858093,140.299744 278.197540,142.717178 278.805084,145.042389 
	C278.797150,145.322800 278.789246,145.603226 278.403625,146.514893 
	C277.176117,158.594162 276.542419,170.064636 275.355988,181.477646 
	C274.956451,185.321060 273.465088,189.152603 271.918274,192.751251 
	C269.603821,198.135818 267.071869,203.467270 264.141785,208.537766 
	C259.278046,216.954422 254.758194,225.735641 248.714142,233.254486 
	C243.410858,239.851791 236.304916,245.031540 229.834686,250.652634 
	C216.686218,262.075531 201.232361,269.250183 184.619583,273.770081 
	C177.947662,275.585358 171.133774,277.545746 163.938080,277.107086 
	C161.326431,276.947876 158.628082,278.211212 155.969284,278.825500 
	C152.956619,278.873199 149.943954,278.920898 146.223541,278.595306 
	C137.395798,277.278076 129.103592,277.058594 121.205391,275.181427 
	C113.681641,273.393219 106.713005,269.368469 99.239487,267.244965 
	C89.739960,264.545776 82.146614,258.638428 74.660645,252.968811 
	C66.651634,246.903015 59.454716,239.555740 52.791203,231.986206 
	C47.042187,225.455521 42.106758,218.085602 37.639320,210.593201 
	C34.682884,205.634903 32.884731,199.901596 31.114702,194.341217 
	C28.802412,187.077362 26.738625,179.704544 25.130772,172.257080 
	C24.099686,167.481155 24.083256,162.486191 23.611990,157.589417 
M213.499695,138.999619 
	C221.861450,130.643295 230.078659,122.135353 238.632278,113.980255 
	C245.076385,107.836380 245.251495,97.807442 242.788498,92.513237 
	C236.692078,79.409073 221.067719,76.689987 210.735962,86.881874 
	C200.779282,96.703812 190.917847,106.622437 181.030991,116.514999 
	C161.866333,135.690735 142.713196,154.877975 122.656555,174.960342 
	C121.530563,173.331650 120.767441,171.769989 119.602058,170.613785 
	C109.250610,160.343979 98.978210,149.986633 88.372009,139.984329 
	C81.622391,133.619034 70.954071,135.121262 63.320141,141.942062 
	C56.123627,148.372055 56.254570,161.681747 61.535030,167.057404 
	C68.611343,174.261261 75.795311,181.359238 82.897743,188.537643 
	C91.022507,196.749329 99.672997,204.527374 107.058701,213.360367 
	C115.059814,222.929337 130.053101,222.948624 137.551651,215.231293 
	C162.381516,189.677002 187.804291,164.698807 213.499695,138.999619 
z"/>
<path fill="#4C6971" opacity="1.000000" stroke="none" 
	d="
M156.434387,278.899719 
	C158.628082,278.211212 161.326431,276.947876 163.938080,277.107086 
	C171.133774,277.545746 177.947662,275.585358 184.619583,273.770081 
	C201.232361,269.250183 216.686218,262.075531 229.834686,250.652634 
	C236.304916,245.031540 243.410858,239.851791 248.714142,233.254486 
	C254.758194,225.735641 259.278046,216.954422 264.141785,208.537766 
	C267.071869,203.467270 269.603821,198.135818 271.918274,192.751251 
	C273.465088,189.152603 274.956451,185.321060 275.355988,181.477646 
	C276.542419,170.064636 277.176117,158.594162 278.206116,146.886444 
	C278.590820,150.425644 278.968811,154.224319 278.973022,158.023438 
	C279.016479,197.180161 278.999481,236.336945 278.999359,275.493713 
	C278.999359,276.464233 278.999390,277.434753 278.999390,278.973938 
	C238.081207,278.973938 197.490356,278.973938 156.434387,278.899719 
z"/>
<path fill="#4C6971" opacity="1.000000" stroke="none" 
	d="
M278.887909,144.577545 
	C278.197540,142.717178 276.858093,140.299744 277.136993,138.086227 
	C277.693085,133.672913 276.647705,129.667892 275.692963,125.500519 
	C273.530304,116.060783 270.964569,106.761192 266.864899,97.966225 
	C260.197968,83.663620 250.976715,71.285156 239.880798,59.983829 
	C229.688339,49.602699 217.452133,42.415588 205.090836,35.464157 
	C198.099442,31.532511 190.162521,28.823357 182.317886,26.994396 
	C174.156815,25.091656 165.594009,24.912016 156.848053,23.843178 
	C160.794724,23.471628 165.099884,23.037975 169.405701,23.031221 
	C204.672867,22.975897 239.940125,23.000097 275.207367,23.000143 
	C276.323761,23.000145 277.440155,23.000145 278.970734,23.000145 
	C278.970734,63.688301 278.970734,103.900505 278.887909,144.577545 
z"/>
<path fill="#4C6971" opacity="1.000000" stroke="none" 
	d="
M144.228821,23.500576 
	C141.427078,24.154413 138.339386,24.609293 135.250763,25.057890 
	C129.972229,25.824560 124.506042,25.960020 119.448967,27.468163 
	C103.673553,32.172775 88.519287,38.383240 75.517120,48.838570 
	C68.946175,54.122417 61.432713,58.751610 56.351673,65.246368 
	C49.202824,74.384277 41.278282,83.235153 36.990368,94.417068 
	C33.901005,102.473427 30.098618,110.264526 27.206760,118.384941 
	C25.791950,122.357765 25.631166,126.798882 25.078833,131.050919 
	C24.548697,135.132019 24.246061,139.242691 23.583714,143.575165 
	C23.215830,139.996552 23.016418,136.183182 23.013779,132.369675 
	C22.989590,97.412888 22.999554,62.456070 22.999556,27.499260 
	C22.999556,26.196756 22.999557,24.894253 22.999557,23.288216 
	C24.580267,23.177752 25.854546,23.011248 27.128870,23.010912 
	C64.573662,23.001041 102.018448,23.004404 139.463242,23.023842 
	C140.956345,23.024618 142.449371,23.203108 144.228821,23.500576 
z"/>
<path fill="#4C6971" opacity="1.000000" stroke="none" 
	d="
M23.448301,157.966553 
	C24.083256,162.486191 24.099686,167.481155 25.130772,172.257080 
	C26.738625,179.704544 28.802412,187.077362 31.114702,194.341217 
	C32.884731,199.901596 34.682884,205.634903 37.639320,210.593201 
	C42.106758,218.085602 47.042187,225.455521 52.791203,231.986206 
	C59.454716,239.555740 66.651634,246.903015 74.660645,252.968811 
	C82.146614,258.638428 89.739960,264.545776 99.239487,267.244965 
	C106.713005,269.368469 113.681641,273.393219 121.205391,275.181427 
	C129.103592,277.058594 137.395798,277.278076 145.773071,278.522583 
	C117.081581,278.882172 88.132851,278.947937 59.184078,278.996857 
	C47.376610,279.016785 35.569084,279.000153 22.999746,279.000153 
	C22.999746,277.266113 22.999712,275.688843 22.999752,274.111572 
	C23.000687,236.681931 22.999096,199.252289 23.014414,161.822647 
	C23.014887,160.662964 23.190598,159.503342 23.448301,157.966553 
z"/>
<path fill="#FEFFFE" opacity="1.000000" stroke="none" 
	d="
M213.249634,139.249603 
	C187.804291,164.698807 162.381516,189.677002 137.551651,215.231293 
	C130.053101,222.948624 115.059814,222.929337 107.058701,213.360367 
	C99.672997,204.527374 91.022507,196.749329 82.897743,188.537643 
	C75.795311,181.359238 68.611343,174.261261 61.535030,167.057404 
	C56.254570,161.681747 56.123627,148.372055 63.320141,141.942062 
	C70.954071,135.121262 81.622391,133.619034 88.372009,139.984329 
	C98.978210,149.986633 109.250610,160.343979 119.602058,170.613785 
	C120.767441,171.769989 121.530563,173.331650 122.656555,174.960342 
	C142.713196,154.877975 161.866333,135.690735 181.030991,116.514999 
	C190.917847,106.622437 200.779282,96.703812 210.735962,86.881874 
	C221.067719,76.689987 236.692078,79.409073 242.788498,92.513237 
	C245.251495,97.807442 245.076385,107.836380 238.632278,113.980255 
	C230.078659,122.135353 221.861450,130.643295 213.249634,139.249603 
z"/>
</svg>